<?xml version="1.0" encoding="UTF-8" standalone="no"?>
<!DOCTYPE svg PUBLIC "-//W3C//DTD SVG 1.1//EN"
 "http://www.w3.org/Graphics/SVG/1.1/DTD/svg11.dtd">
<!-- Generated by graphviz version 2.44.1 (20200629.0846)
 -->
<!-- Title: g Pages: 1 -->
<svg width="696pt" height="424pt"
 viewBox="0.00 0.00 696.00 423.60" xmlns="http://www.w3.org/2000/svg" xmlns:xlink="http://www.w3.org/1999/xlink">
<g id="graph0" class="graph" transform="scale(1 1) rotate(0) translate(4 419.6)">
<title>g</title>
<polygon fill="white" stroke="transparent" points="-4,4 -4,-419.6 692,-419.6 692,4 -4,4"/>
<g id="clust3" class="cluster">
<title>cluster_1714933313</title>
<polygon fill="#ececec" stroke="black" points="344,-316.8 344,-407.6 504,-407.6 504,-316.8 344,-316.8"/>
<text text-anchor="middle" x="404.08" y="-391" font-family="Times New Roman,serif" font-size="14.00">DecoradorGranola</text>
</g>
<g id="clust6" class="cluster">
<title>cluster_2137078947</title>
<polygon fill="#ececec" stroke="black" points="260,-150.4 260,-265.2 430,-265.2 430,-150.4 260,-150.4"/>
<text text-anchor="middle" x="288.21" y="-248.6" font-family="Times New Roman,serif" font-size="14.00">Helado</text>
</g>
<g id="clust7" class="cluster">
<title>cluster_295598524</title>
<polygon fill="#ececec" stroke="black" points="298,-8 298,-98.8 458,-98.8 458,-8 298,-8"/>
<text text-anchor="middle" x="359.26" y="-82.2" font-family="Times New Roman,serif" font-size="14.00">DecoradorTopping</text>
</g>
<g id="clust5" class="cluster">
<title>cluster_1806748889</title>
<polygon fill="#ececec" stroke="black" points="512,-316.8 512,-407.6 680,-407.6 680,-316.8 512,-316.8"/>
<text text-anchor="middle" x="581.41" y="-391" font-family="Times New Roman,serif" font-size="14.00">DecoradorMermelada</text>
</g>
<g id="clust1" class="cluster">
<title>cluster_1238327533</title>
<polygon fill="#ececec" stroke="black" points="8,-316.8 8,-407.6 168,-407.6 168,-316.8 8,-316.8"/>
<text text-anchor="middle" x="65.75" y="-391" font-family="Times New Roman,serif" font-size="14.00">DecoradorGalleta</text>
</g>
<g id="clust2" class="cluster">
<title>cluster_1417732040</title>
<polygon fill="#ececec" stroke="black" points="176,-316.8 176,-407.6 336,-407.6 336,-316.8 176,-316.8"/>
<text text-anchor="middle" x="241.52" y="-391" font-family="Times New Roman,serif" font-size="14.00">DecoradorCobertura</text>
</g>
<g id="clust4" class="cluster">
<title>cluster_1768024111</title>
<polygon fill="#ececec" stroke="black" points="170,-15 170,-91.8 290,-91.8 290,-15 170,-15"/>
<text text-anchor="middle" x="215.32" y="-75.2" font-family="Times New Roman,serif" font-size="14.00">HeladoSuave</text>
</g>
<!-- DecoradorGalleta1238327533 -->
<g id="node1" class="node">
<title>DecoradorGalleta1238327533</title>
<polygon fill="#ffffff" stroke="transparent" points="160,-374.8 16,-374.8 16,-324.8 160,-324.8 160,-374.8"/>
<text text-anchor="start" x="21" y="-357.2" font-family="Times New Roman,serif" font-size="14.00">(C)DecoradorGalleta</text>
<text text-anchor="start" x="20.94" y="-333.2" font-family="Times New Roman,serif" font-size="14.00">&#45; &#160;&#160;helado: Helado [0..1]</text>
<polygon fill="black" stroke="black" points="16,-349.8 16,-349.8 160,-349.8 160,-349.8 16,-349.8"/>
<polygon fill="none" stroke="black" points="16,-324.8 16,-374.8 160,-374.8 160,-324.8 16,-324.8"/>
</g>
<!-- Helado2137078947 -->
<g id="node6" class="node">
<title>Helado2137078947</title>
<polygon fill="#f1e5fd" stroke="transparent" points="422,-232.4 268,-232.4 268,-158.4 422,-158.4 422,-232.4"/>
<text text-anchor="start" x="273" y="-214.8" font-family="Times New Roman,serif" font-size="14.00">(I)Helado</text>
<text text-anchor="start" x="272.63" y="-190.8" font-family="Times New Roman,serif" font-size="14.00">+ getDescription(): String</text>
<text text-anchor="start" x="273" y="-166.8" font-family="Times New Roman,serif" font-size="14.00">+ getPrice(): int</text>
<polygon fill="black" stroke="black" points="268,-207.4 268,-207.4 422,-207.4 422,-207.4 268,-207.4"/>
<polygon fill="none" stroke="black" points="268,-158.4 268,-232.4 422,-232.4 422,-158.4 268,-158.4"/>
</g>
<!-- DecoradorGalleta1238327533&#45;&gt;Helado2137078947 -->
<g id="edge2" class="edge">
<title>DecoradorGalleta1238327533&#45;&gt;Helado2137078947</title>
<path fill="none" stroke="black" d="M108.82,-324.46C127.73,-302.36 152.68,-273.2 152.68,-273.2 152.68,-273.2 207.36,-251.36 258.41,-230.98"/>
<polygon fill="black" stroke="black" points="259.9,-234.15 267.88,-227.19 257.3,-227.65 259.9,-234.15"/>
<text text-anchor="middle" x="170.66" y="-294.2" font-family="Times New Roman,serif" font-size="14.00">helado</text>
<text text-anchor="middle" x="170.66" y="-277.4" font-family="Times New Roman,serif" font-size="14.00">[0..1]</text>
</g>
<!-- DecoradorCobertura1417732040 -->
<g id="node2" class="node">
<title>DecoradorCobertura1417732040</title>
<polygon fill="#ffffff" stroke="transparent" points="328,-374.8 184,-374.8 184,-324.8 328,-324.8 328,-374.8"/>
<text text-anchor="start" x="189" y="-357.2" font-family="Times New Roman,serif" font-size="14.00">(C)DecoradorCobertura</text>
<text text-anchor="start" x="188.94" y="-333.2" font-family="Times New Roman,serif" font-size="14.00">&#45; &#160;&#160;helado: Helado [0..1]</text>
<polygon fill="black" stroke="black" points="184,-349.8 184,-349.8 328,-349.8 328,-349.8 184,-349.8"/>
<polygon fill="none" stroke="black" points="184,-324.8 184,-374.8 328,-374.8 328,-324.8 184,-324.8"/>
</g>
<!-- DecoradorCobertura1417732040&#45;&gt;Helado2137078947 -->
<g id="edge1" class="edge">
<title>DecoradorCobertura1417732040&#45;&gt;Helado2137078947</title>
<path fill="none" stroke="black" d="M261.69,-324.46C266.86,-302.36 273.68,-273.2 273.68,-273.2 273.68,-273.2 288.42,-257.33 304.5,-240.02"/>
<polygon fill="black" stroke="black" points="307.19,-242.26 311.43,-232.55 302.06,-237.5 307.19,-242.26"/>
<text text-anchor="middle" x="291.66" y="-294.2" font-family="Times New Roman,serif" font-size="14.00">helado</text>
<text text-anchor="middle" x="291.66" y="-277.4" font-family="Times New Roman,serif" font-size="14.00">[0..1]</text>
</g>
<!-- DecoradorGranola1714933313 -->
<g id="node3" class="node">
<title>DecoradorGranola1714933313</title>
<polygon fill="#ffffff" stroke="transparent" points="496,-374.8 352,-374.8 352,-324.8 496,-324.8 496,-374.8"/>
<text text-anchor="start" x="357" y="-357.2" font-family="Times New Roman,serif" font-size="14.00">(C)DecoradorGranola</text>
<text text-anchor="start" x="356.94" y="-333.2" font-family="Times New Roman,serif" font-size="14.00">&#45; &#160;&#160;helado: Helado [0..1]</text>
<polygon fill="black" stroke="black" points="352,-349.8 352,-349.8 496,-349.8 496,-349.8 352,-349.8"/>
<polygon fill="none" stroke="black" points="352,-324.8 352,-374.8 496,-374.8 496,-324.8 352,-324.8"/>
</g>
<!-- DecoradorGranola1714933313&#45;&gt;Helado2137078947 -->
<g id="edge3" class="edge">
<title>DecoradorGranola1714933313&#45;&gt;Helado2137078947</title>
<path fill="none" stroke="black" d="M393.29,-324.61C381.44,-315.28 370.68,-306.8 370.68,-306.8 370.68,-306.8 362.78,-272.85 355.75,-242.61"/>
<polygon fill="black" stroke="black" points="359.08,-241.5 353.41,-232.55 352.27,-243.08 359.08,-241.5"/>
<text text-anchor="middle" x="388.66" y="-294.2" font-family="Times New Roman,serif" font-size="14.00">helado</text>
<text text-anchor="middle" x="388.66" y="-277.4" font-family="Times New Roman,serif" font-size="14.00">[0..1]</text>
</g>
<!-- HeladoSuave1768024111 -->
<g id="node4" class="node">
<title>HeladoSuave1768024111</title>
<polygon fill="#ffffff" stroke="transparent" points="281.5,-59 178.5,-59 178.5,-23 281.5,-23 281.5,-59"/>
<text text-anchor="start" x="183.85" y="-36.4" font-family="Times New Roman,serif" font-size="14.00">(C)HeladoSuave</text>
<polygon fill="none" stroke="black" points="178.5,-28 178.5,-54 281.5,-54 281.5,-28 178.5,-28"/>
</g>
<!-- DecoradorMermelada1806748889 -->
<g id="node5" class="node">
<title>DecoradorMermelada1806748889</title>
<polygon fill="#ffffff" stroke="transparent" points="671.5,-374.8 520.5,-374.8 520.5,-324.8 671.5,-324.8 671.5,-374.8"/>
<text text-anchor="start" x="525.76" y="-357.2" font-family="Times New Roman,serif" font-size="14.00">(C)DecoradorMermelada</text>
<text text-anchor="start" x="526" y="-333.2" font-family="Times New Roman,serif" font-size="14.00">&#45; &#160;&#160;helado: Helado [0..1]</text>
<polygon fill="black" stroke="black" points="521,-349.8 521,-349.8 672,-349.8 672,-349.8 521,-349.8"/>
<polygon fill="none" stroke="black" points="520.5,-324.8 520.5,-374.8 671.5,-374.8 671.5,-324.8 520.5,-324.8"/>
</g>
<!-- DecoradorMermelada1806748889&#45;&gt;Helado2137078947 -->
<g id="edge4" class="edge">
<title>DecoradorMermelada1806748889&#45;&gt;Helado2137078947</title>
<path fill="none" stroke="black" d="M554.35,-324.61C538.27,-315.28 523.68,-306.8 523.68,-306.8 523.68,-306.8 462.86,-269.22 412.19,-237.91"/>
<polygon fill="black" stroke="black" points="413.85,-234.83 403.51,-232.55 410.17,-240.78 413.85,-234.83"/>
<text text-anchor="middle" x="541.66" y="-294.2" font-family="Times New Roman,serif" font-size="14.00">helado</text>
<text text-anchor="middle" x="541.66" y="-277.4" font-family="Times New Roman,serif" font-size="14.00">[0..1]</text>
</g>
<!-- Helado2137078947&#45;&gt;DecoradorGalleta1238327533 -->
<g id="edge7" class="edge">
<title>Helado2137078947&#45;&gt;DecoradorGalleta1238327533</title>
<path fill="none" stroke="black" d="M285.9,-238.49C242.11,-269.68 190,-306.8 190,-306.8 190,-306.8 169.24,-315.35 146.45,-324.73"/>
<polygon fill="none" stroke="black" points="288.13,-241.2 294.25,-232.55 284.07,-235.5 288.13,-241.2"/>
</g>
<!-- Helado2137078947&#45;&gt;DecoradorCobertura1417732040 -->
<g id="edge6" class="edge">
<title>Helado2137078947&#45;&gt;DecoradorCobertura1417732040</title>
<path fill="none" stroke="black" d="M330.89,-242.22C321.55,-272.56 311,-306.8 311,-306.8 311,-306.8 299.9,-315.28 287.68,-324.61"/>
<polygon fill="none" stroke="black" points="334.27,-243.14 333.87,-232.55 327.58,-241.08 334.27,-243.14"/>
</g>
<!-- Helado2137078947&#45;&gt;DecoradorGranola1714933313 -->
<g id="edge8" class="edge">
<title>Helado2137078947&#45;&gt;DecoradorGranola1714933313</title>
<path fill="none" stroke="black" d="M381.16,-240.48C395.21,-257.61 408,-273.2 408,-273.2 408,-273.2 414.17,-302.36 418.85,-324.46"/>
<polygon fill="none" stroke="black" points="383.7,-238.06 374.66,-232.55 378.29,-242.5 383.7,-238.06"/>
</g>
<!-- Helado2137078947&#45;&gt;HeladoSuave1768024111 -->
<g id="edge11" class="edge">
<title>Helado2137078947&#45;&gt;HeladoSuave1768024111</title>
<path fill="none" stroke="black" d="M311.45,-149.95C288.51,-119.54 259.37,-80.92 242.89,-59.08"/>
<polygon fill="none" stroke="black" points="308.93,-152.41 317.75,-158.28 314.52,-148.19 308.93,-152.41"/>
</g>
<!-- Helado2137078947&#45;&gt;DecoradorMermelada1806748889 -->
<g id="edge9" class="edge">
<title>Helado2137078947&#45;&gt;DecoradorMermelada1806748889</title>
<path fill="none" stroke="black" d="M431.62,-227.2C491.71,-248.56 561,-273.2 561,-273.2 561,-273.2 574.5,-302.36 584.73,-324.46"/>
<polygon fill="none" stroke="black" points="432.66,-223.85 422.07,-223.8 430.32,-230.45 432.66,-223.85"/>
</g>
<!-- DecoradorTopping295598524 -->
<g id="node7" class="node">
<title>DecoradorTopping295598524</title>
<polygon fill="#ffffff" stroke="transparent" points="450,-66 306,-66 306,-16 450,-16 450,-66"/>
<text text-anchor="start" x="311" y="-48.4" font-family="Times New Roman,serif" font-size="14.00">(C)DecoradorTopping</text>
<text text-anchor="start" x="310.94" y="-24.4" font-family="Times New Roman,serif" font-size="14.00">&#45; &#160;&#160;helado: Helado [0..1]</text>
<polygon fill="black" stroke="black" points="306,-41 306,-41 450,-41 450,-41 306,-41"/>
<polygon fill="none" stroke="black" points="306,-16 306,-66 450,-66 450,-16 306,-16"/>
</g>
<!-- Helado2137078947&#45;&gt;DecoradorTopping295598524 -->
<g id="edge10" class="edge">
<title>Helado2137078947&#45;&gt;DecoradorTopping295598524</title>
<path fill="none" stroke="black" d="M352.37,-148.27C355.74,-127.17 359,-106.8 359,-106.8 359,-106.8 365.52,-84.55 370.93,-66.13"/>
<polygon fill="none" stroke="black" points="348.9,-147.84 350.78,-158.26 355.81,-148.94 348.9,-147.84"/>
</g>
<!-- DecoradorTopping295598524&#45;&gt;Helado2137078947 -->
<g id="edge5" class="edge">
<title>DecoradorTopping295598524&#45;&gt;Helado2137078947</title>
<path fill="none" stroke="black" d="M372.71,-66.45C367.94,-88.44 360.82,-121.35 354.98,-148.29"/>
<polygon fill="black" stroke="black" points="351.52,-147.77 352.82,-158.28 358.36,-149.25 351.52,-147.77"/>
<text text-anchor="middle" x="381.66" y="-127.8" font-family="Times New Roman,serif" font-size="14.00">helado</text>
<text text-anchor="middle" x="381.66" y="-111" font-family="Times New Roman,serif" font-size="14.00">[0..1]</text>
</g>
</g>
</svg>
